<?xml version="1.0" standalone="no"?>
<!DOCTYPE svg PUBLIC "-//W3C//DTD SVG 20010904//EN"
 "http://www.w3.org/TR/2001/REC-SVG-20010904/DTD/svg10.dtd">
<svg version="1.0" xmlns="http://www.w3.org/2000/svg"
 width="1024.000000pt" height="1024.000000pt" viewBox="0 0 1024.000000 1024.000000"
 preserveAspectRatio="xMidYMid meet">
<metadata>
Created by potrace 1.11, written by Peter Selinger 2001-2013
</metadata>
<g transform="translate(0.000000,1024.000000) scale(0.100000,-0.100000)"
fill="#000000" stroke="none">
<path d="M2479 10236 c-2 -2 -68 -7 -146 -10 -78 -4 -150 -8 -160 -10 -10 -2
-52 -7 -93 -11 -863 -80 -1558 -582 -1873 -1355 -31 -74 -80 -225 -92 -277 -2
-10 -13 -58 -24 -108 -11 -49 -23 -112 -27 -140 -3 -27 -8 -59 -10 -70 -2 -10
-7 -49 -10 -85 -4 -36 -8 -78 -10 -95 -1 -16 -7 -86 -11 -155 -10 -159 -11
-5469 0 -5610 8 -117 15 -197 22 -250 3 -19 7 -55 10 -80 34 -296 143 -621
294 -880 78 -134 228 -328 331 -430 274 -270 617 -465 988 -561 64 -17 131
-32 147 -34 17 -3 41 -7 55 -10 14 -3 45 -8 70 -11 25 -3 47 -7 50 -9 3 -2 41
-6 85 -10 44 -4 91 -8 105 -10 101 -17 602 -20 2950 -20 2335 0 2820 3 2955
20 17 2 59 6 95 10 36 3 74 8 85 10 11 2 38 7 60 9 130 17 343 68 422 101 18
8 33 11 33 8 0 -3 6 -1 13 4 6 5 35 18 62 28 28 10 97 41 155 70 596 295 1012
833 1154 1491 29 137 33 159 42 234 3 30 8 64 10 75 16 85 19 553 19 3060 0
2494 -3 2932 -20 3055 -2 14 -6 48 -9 75 -107 888 -695 1600 -1531 1853 -89
27 -155 44 -170 43 -2 0 -19 5 -37 10 -18 5 -53 12 -78 15 -25 3 -47 8 -50 9
-3 2 -33 6 -65 10 -33 3 -71 8 -85 10 -14 3 -61 7 -105 10 -44 3 -107 9 -140
12 -61 7 -5459 15 -5466 9z"/>
</g>
</svg>
